<svg id="visual" viewBox="0 0 900 600" width="900" height="600" xmlns="http://www.w3.org/2000/svg" xmlns:xlink="http://www.w3.org/1999/xlink" version="1.1"><rect x="0" y="0" width="900" height="600" fill="#16A085"></rect><defs><linearGradient id="grad1_0" x1="33.3%" y1="0%" x2="100%" y2="100%"><stop offset="20%" stop-color="#2c3e50" stop-opacity="1"></stop><stop offset="80%" stop-color="#2c3e50" stop-opacity="1"></stop></linearGradient></defs><defs><linearGradient id="grad1_1" x1="33.3%" y1="0%" x2="100%" y2="100%"><stop offset="20%" stop-color="#2c3e50" stop-opacity="1"></stop><stop offset="80%" stop-color="#20556b" stop-opacity="1"></stop></linearGradient></defs><defs><linearGradient id="grad1_2" x1="33.3%" y1="0%" x2="100%" y2="100%"><stop offset="20%" stop-color="#006e7f" stop-opacity="1"></stop><stop offset="80%" stop-color="#20556b" stop-opacity="1"></stop></linearGradient></defs><defs><linearGradient id="grad1_3" x1="33.3%" y1="0%" x2="100%" y2="100%"><stop offset="20%" stop-color="#006e7f" stop-opacity="1"></stop><stop offset="80%" stop-color="#008887" stop-opacity="1"></stop></linearGradient></defs><defs><linearGradient id="grad1_4" x1="33.3%" y1="0%" x2="100%" y2="100%"><stop offset="20%" stop-color="#16a085" stop-opacity="1"></stop><stop offset="80%" stop-color="#008887" stop-opacity="1"></stop></linearGradient></defs><defs><linearGradient id="grad2_0" x1="0%" y1="0%" x2="66.7%" y2="100%"><stop offset="20%" stop-color="#2c3e50" stop-opacity="1"></stop><stop offset="80%" stop-color="#2c3e50" stop-opacity="1"></stop></linearGradient></defs><defs><linearGradient id="grad2_1" x1="0%" y1="0%" x2="66.7%" y2="100%"><stop offset="20%" stop-color="#20556b" stop-opacity="1"></stop><stop offset="80%" stop-color="#2c3e50" stop-opacity="1"></stop></linearGradient></defs><defs><linearGradient id="grad2_2" x1="0%" y1="0%" x2="66.7%" y2="100%"><stop offset="20%" stop-color="#20556b" stop-opacity="1"></stop><stop offset="80%" stop-color="#006e7f" stop-opacity="1"></stop></linearGradient></defs><defs><linearGradient id="grad2_3" x1="0%" y1="0%" x2="66.7%" y2="100%"><stop offset="20%" stop-color="#008887" stop-opacity="1"></stop><stop offset="80%" stop-color="#006e7f" stop-opacity="1"></stop></linearGradient></defs><defs><linearGradient id="grad2_4" x1="0%" y1="0%" x2="66.7%" y2="100%"><stop offset="20%" stop-color="#008887" stop-opacity="1"></stop><stop offset="80%" stop-color="#16a085" stop-opacity="1"></stop></linearGradient></defs><g transform="translate(900, 0)"><path d="M0 459.7C-61.4 446.8 -122.8 433.9 -166.5 401.9C-210.1 369.9 -236 318.8 -281.4 281.4C-326.8 244.1 -391.8 220.5 -424.7 175.9C-457.7 131.3 -458.7 65.7 -459.7 0L0 0Z" fill="#009488"></path><path d="M0 367.8C-49.1 357.4 -98.3 347.1 -133.2 321.5C-168.1 295.9 -188.8 255 -225.1 225.1C-261.5 195.3 -313.4 176.4 -339.8 140.7C-366.1 105.1 -367 52.5 -367.8 0L0 0Z" fill="#007b84"></path><path d="M0 275.8C-36.8 268.1 -73.7 260.3 -99.9 241.1C-126.1 221.9 -141.6 191.3 -168.9 168.9C-196.1 146.5 -235.1 132.3 -254.8 105.6C-274.6 78.8 -275.2 39.4 -275.8 0L0 0Z" fill="#0f6276"></path><path d="M0 183.9C-24.6 178.7 -49.1 173.6 -66.6 160.8C-84 148 -94.4 127.5 -112.6 112.6C-130.7 97.6 -156.7 88.2 -169.9 70.4C-183.1 52.5 -183.5 26.3 -183.9 0L0 0Z" fill="#29495e"></path><path d="M0 91.9C-12.3 89.4 -24.6 86.8 -33.3 80.4C-42 74 -47.2 63.8 -56.3 56.3C-65.4 48.8 -78.4 44.1 -84.9 35.2C-91.5 26.3 -91.7 13.1 -91.9 0L0 0Z" fill="#2c3e50"></path></g><g transform="translate(0, 600)"><path d="M0 -459.7C58 -452.2 116 -444.7 175.9 -424.7C235.8 -404.7 297.5 -372.2 321 -321C344.5 -269.9 329.7 -200.1 346.5 -143.5C363.2 -86.9 411.4 -43.4 459.7 0L0 0Z" fill="#009488"></path><path d="M0 -367.8C46.4 -361.8 92.8 -355.8 140.7 -339.8C188.6 -323.8 238 -297.7 256.8 -256.8C275.6 -215.9 263.8 -160.1 277.2 -114.8C290.6 -69.5 329.2 -34.8 367.8 0L0 0Z" fill="#007b84"></path><path d="M0 -275.8C34.8 -271.3 69.6 -266.8 105.6 -254.8C141.5 -242.8 178.5 -223.3 192.6 -192.6C206.7 -161.9 197.8 -120.1 207.9 -86.1C217.9 -52.1 246.9 -26.1 275.8 0L0 0Z" fill="#0f6276"></path><path d="M0 -183.9C23.2 -180.9 46.4 -177.9 70.4 -169.9C94.3 -161.9 119 -148.9 128.4 -128.4C137.8 -108 131.9 -80 138.6 -57.4C145.3 -34.8 164.6 -17.4 183.9 0L0 0Z" fill="#29495e"></path><path d="M0 -91.9C11.6 -90.4 23.2 -88.9 35.2 -84.9C47.2 -80.9 59.5 -74.4 64.2 -64.2C68.9 -54 65.9 -40 69.3 -28.7C72.6 -17.4 82.3 -8.7 91.9 0L0 0Z" fill="#2c3e50"></path></g></svg>